# xmcd
#
# Track frame offsets:
#	150
#	10425
#	20102
#	29962
#	40780
#	53080
#	64107
#	74459
#	84134
#	94783
#	103816
#	113638
#
# Disc length: 1633 seconds
#
# Revision: 1
# Processed by: cddbd v1.5.1PL0 Copyright (c) Steve Scherf et al.
# Submitted via: audiograbber 1.83.01
#
DISCID=a0065f0c
DTITLE=Mel Tillis - Life's That Way
DYEAR=1967
DGENRE=Country
TTITLE0=Life Turned Her That Way
TTITLE1=If I Could Only Start Over
TTITLE2=World What Have I Done
TTITLE3=Walking On New Grass
TTITLE4=Ruby
TTITLE5=Sweet Thang
TTITLE6=I Could Never Be Ashamed Of You
TTITLE7=Unmitigated Gall
TTITLE8=Right Back In Your Arms Again
TTITLE9=That's Where My Money Goes
TTITLE10=The Old Gang's Gone
TTITLE11=Alone With You
EXTD=
EXTT0=
EXTT1=
EXTT2=
EXTT3=
EXTT4=
EXTT5=
EXTT6=
EXTT7=
EXTT8=
EXTT9=
EXTT10=
EXTT11=
PLAYORDER=
